<svg id="Layer_1" data-name="Layer 1" xmlns="http://www.w3.org/2000/svg" viewBox="0 0 184 23"><defs><style>.cls-1{fill:#0f0f0f;}.cls-2{fill:#e60a14;}.cls-3{fill:#686565;}</style></defs><polygon class="cls-1" points="153.75 21.89 153.75 1.11 168.77 1.11 168.77 5.99 158.63 5.99 158.63 9.06 168.77 9.06 168.77 13.94 158.63 13.94 158.63 17.02 168.77 17.02 168.77 21.89 153.75 21.89"/><path class="cls-1" d="M140.74,21.89h-7.49V1.11h7.49a12.94,12.94,0,0,1,4.33.72,10.58,10.58,0,0,1,3.59,2.07,9.73,9.73,0,0,1,2.46,3.27,10.14,10.14,0,0,1,.89,4.3,9.89,9.89,0,0,1-3.32,7.58,10.51,10.51,0,0,1-3.58,2.11,13.1,13.1,0,0,1-4.37.73M138.12,17h2.62a7.85,7.85,0,0,0,2.87-.47,5.6,5.6,0,0,0,2-1.25,5.13,5.13,0,0,0,1.16-1.77,5.59,5.59,0,0,0,0-4,5,5,0,0,0-1.16-1.76,5.6,5.6,0,0,0-2-1.25A7.84,7.84,0,0,0,140.74,6h-2.62Z"/><path class="cls-2" d="M131.52,11.55a10.31,10.31,0,0,1-6.26,9.53,10,10,0,0,1-4,.81,9.88,9.88,0,0,1-4-.81A10.32,10.32,0,0,1,114,18.86a10.56,10.56,0,0,1-2.2-3.28,10.08,10.08,0,0,1-.81-4,10.26,10.26,0,0,1,.79-4,10.66,10.66,0,0,1,2.17-3.32A10.41,10.41,0,0,1,117.2,2a9.73,9.73,0,0,1,4-.84h10.29Zm-4.8,0V5.91h-5.49a5.24,5.24,0,0,0-2.11.43,5.31,5.31,0,0,0-1.74,1.2,5.83,5.83,0,0,0-1.17,1.8,5.82,5.82,0,0,0,0,4.39,5.34,5.34,0,0,0,1.16,1.76,5.55,5.55,0,0,0,1.74,1.17,5.59,5.59,0,0,0,4.3,0,5.79,5.79,0,0,0,1.74-1.17,5.22,5.22,0,0,0,1.17-1.76,5.64,5.64,0,0,0,.42-2.18"/><path class="cls-1" d="M109.05,15.2a10.21,10.21,0,0,1-1.55,2.73,10.66,10.66,0,0,1-2.23,2.12,10.25,10.25,0,0,1-5.88,1.84,10.1,10.1,0,0,1-7.25-3A10.48,10.48,0,0,1,90,15.56a10.24,10.24,0,0,1-.79-4A10.17,10.17,0,0,1,90,7.5a10.75,10.75,0,0,1,2.2-3.32,10.4,10.4,0,0,1,3.25-2.25,9.89,9.89,0,0,1,4-.82,9.78,9.78,0,0,1,3.11.49A10.82,10.82,0,0,1,105.27,3a10,10,0,0,1,2.22,2.1A10.43,10.43,0,0,1,109,7.8H103.5a5.55,5.55,0,0,0-1.8-1.38,5.15,5.15,0,0,0-2.28-.51,5.24,5.24,0,0,0-2.11.43,5.31,5.31,0,0,0-1.74,1.2,5.83,5.83,0,0,0-1.17,1.8,5.82,5.82,0,0,0,0,4.39,5.34,5.34,0,0,0,1.16,1.76,5.55,5.55,0,0,0,1.74,1.17,5.56,5.56,0,0,0,4.47-.08,5.49,5.49,0,0,0,1.81-1.38Z"/><polygon class="cls-1" points="74.89 1.11 79.69 9.04 84.4 1.08 90 1.06 82.11 14.4 82.13 21.89 77.34 21.91 77.31 14.42 69.32 1.14 74.89 1.11"/><polygon class="cls-1" points="49.31 1.11 56.08 15.83 62.83 1.11 67.87 1.11 67.87 21.89 63.07 21.89 63.07 12.09 58.69 21.89 53.45 21.89 49.07 12.09 49.07 21.89 44.27 21.89 44.27 1.11 49.31 1.11"/><path class="cls-1" d="M32.12,1A10.48,10.48,0,1,0,42.6,11.5,10.49,10.49,0,0,0,32.12,1m0,16a5.47,5.47,0,1,1,5.47-5.47A5.47,5.47,0,0,1,32.12,17"/><path class="cls-1" d="M10.38,9.66H20l-.12,2.51a11.13,11.13,0,0,1-.85,4,9.79,9.79,0,0,1-2,3.06,9,9,0,0,1-3,2,9.65,9.65,0,0,1-3.76.72,10.25,10.25,0,0,1-4.08-.81,9.93,9.93,0,0,1-3.26-2.22A10.53,10.53,0,0,1,0,11.54a10.74,10.74,0,0,1,.77-4A10.44,10.44,0,0,1,2.88,4.18a9.85,9.85,0,0,1,7.26-3.07A10.29,10.29,0,0,1,13,1.5,9.48,9.48,0,0,1,15.5,2.64a9.32,9.32,0,0,1,2.09,1.83A9.07,9.07,0,0,1,19.07,7H13.35a4.31,4.31,0,0,0-1.76-.86,7.44,7.44,0,0,0-1.51-.19A5,5,0,0,0,8,6.34a5.27,5.27,0,0,0-1.68,1.2A5.62,5.62,0,0,0,5.2,9.33a5.78,5.78,0,0,0-.4,2.15,5.88,5.88,0,0,0,.4,2.19,5.62,5.62,0,0,0,1.13,1.79A5.27,5.27,0,0,0,8,16.66a5,5,0,0,0,2.07.43,6.56,6.56,0,0,0,1-.09,5.28,5.28,0,0,0,1.23-.36,4.79,4.79,0,0,0,1.26-.79,3.9,3.9,0,0,0,1-1.4H10.38Z"/><path class="cls-3" d="M176,1.56A3.36,3.36,0,0,1,177.42,3a4.3,4.3,0,0,1,.5,2.15,4.25,4.25,0,0,1-.5,2.13A3.39,3.39,0,0,1,176,8.61a5.18,5.18,0,0,1-2.28.47h-2.37v-8h2.37A5,5,0,0,1,176,1.56Zm.26,6a3.27,3.27,0,0,0,.88-2.44,3.35,3.35,0,0,0-.88-2.47,3.41,3.41,0,0,0-2.54-.88h-1.57V8.42h1.57A3.41,3.41,0,0,0,176.23,7.54Z"/><path class="cls-3" d="M179.91,8.37H184v.71h-5V8.44l4-6.65h-4V1.08h4.9v.64Z"/></svg>